<svg width="792" height="607" viewBox="0 0 792 607" fill="none" xmlns="http://www.w3.org/2000/svg">
<g clip-path="url(#clip0_961_1165)">
<mask id="mask0_961_1165" style="mask-type:alpha" maskUnits="userSpaceOnUse" x="30" y="31" width="758" height="576">
<mask id="mask1_961_1165" style="mask-type:alpha" maskUnits="userSpaceOnUse" x="24" y="30" width="769" height="577">
<rect width="768.321" height="576.988" transform="matrix(1 0 0 -1 24 606.988)" fill="#2F2C41"/>
</mask>
<g mask="url(#mask1_961_1165)">
<circle cx="409.157" cy="410.175" r="378.181" fill="#7058EB" fill-opacity="0.86"/>
</g>
</mask>
<g mask="url(#mask0_961_1165)">
<path d="M409.598 788C349.57 787.991 290.477 773.084 237.593 744.609C184.709 716.134 139.678 674.975 106.518 624.807C73.3589 574.639 53.1021 517.021 47.5557 457.094C42.0093 397.167 51.3456 336.796 74.7317 281.367C81.3309 267.016 93.241 255.802 107.941 250.099C122.641 244.397 138.978 244.653 153.493 250.813C168.008 256.973 179.563 268.555 185.712 283.106C191.861 297.657 192.121 314.036 186.437 328.776C170.925 365.699 164.761 405.895 168.492 445.785C172.224 485.675 185.736 524.02 207.826 557.407C229.915 590.794 259.897 618.187 295.1 637.146C330.304 656.105 369.637 666.043 409.598 666.073C461.438 665.807 511.846 648.997 553.516 618.078C595.186 587.16 625.953 543.741 641.357 494.114C646.05 478.691 656.661 465.769 670.857 458.19C685.052 450.611 701.67 448.996 717.053 453.701C732.436 458.406 745.325 469.045 752.884 483.277C760.443 497.51 762.054 514.17 757.361 529.593C734.309 604.128 688.169 669.36 625.636 715.825C563.104 762.291 487.431 787.571 409.598 788V788Z" fill="#8338DA" style="mix-blend-mode:soft-light"/>
<path d="M410.5 181C394.815 180.492 379.94 173.843 369.022 162.459C358.104 151.074 352 135.848 352 120C352 104.152 358.104 88.9256 369.022 77.5413C379.94 66.157 394.815 59.5077 410.5 59V59C426.185 59.5077 441.06 66.157 451.978 77.5413C462.896 88.9256 469 104.152 469 120C469 135.848 462.896 151.074 451.978 162.459C441.06 173.843 426.185 180.492 410.5 181V181Z" fill="#8338DA" style="mix-blend-mode:soft-light"/>
<path d="M698.328 393C685.451 392.987 672.912 388.861 662.52 381.218C652.128 373.576 644.421 362.811 640.512 350.479C624.42 299.25 591.911 254.815 548.057 224.107C541.511 219.535 535.926 213.711 531.62 206.969C527.314 200.227 524.371 192.699 522.959 184.814C521.548 176.928 521.695 168.841 523.393 161.013C525.091 153.185 528.306 145.77 532.855 139.191C537.404 132.612 543.198 126.998 549.905 122.67C556.613 118.341 564.102 115.383 571.947 113.964C579.792 112.545 587.838 112.694 595.626 114.4C603.414 116.107 610.791 119.339 617.336 123.911C683.208 169.989 732.024 236.719 756.144 313.657C759.038 322.791 759.745 332.482 758.208 341.943C756.671 351.403 752.932 360.365 747.297 368.098C741.662 375.831 734.29 382.118 725.78 386.445C717.27 390.772 707.864 393.018 698.328 393Z" fill="#8338DA" style="mix-blend-mode:soft-light"/>
</g>
</g>
<defs>
<clipPath id="clip0_961_1165">
<rect width="792" height="607" fill="white"/>
</clipPath>
</defs>
</svg>
